<svg data-v-fde0c5aa="" xmlns="http://www.w3.org/2000/svg" viewBox="0 0 300 300" class="font"><!----><defs data-v-fde0c5aa=""><!----></defs><rect data-v-fde0c5aa="" fill="transparent" x="0" y="0" width="300px" height="300px" class="logo-background-square"></rect><defs data-v-fde0c5aa=""><linearGradient data-v-fde0c5aa="" gradientTransform="rotate(25)" id="a20679c3-bc2e-4cad-8c0e-d9d4c246d1ef" x1="0%" y1="0%" x2="100%" y2="0%"><stop data-v-fde0c5aa="" offset="0%" stop-color="#4E1A70" stop-opacity="1"></stop><stop data-v-fde0c5aa="" offset="100%" stop-color="#2B4CF2" stop-opacity="1"></stop></linearGradient></defs><g data-v-fde0c5aa="" id="6d11154d-3d54-4f19-93e2-911c5ac17259" fill="url(#a20679c3-bc2e-4cad-8c0e-d9d4c246d1ef)" transform="matrix(1.883400433166215,0,0,1.883400433166215,38.36144161416464,130.9870730223402)"><path d="M0.87 3.98L0.87 13.78L4.23 13.78C6.86 13.78 8.26 12.47 8.26 9.80L8.26 7.95C8.26 5.28 6.86 3.98 4.23 3.98ZM2.72 5.71L4.26 5.71C5.84 5.71 6.41 6.50 6.41 7.90L6.41 9.86C6.41 11.26 5.84 12.04 4.26 12.04L2.72 12.04ZM9.16 10.30C9.16 12.49 10.75 13.97 12.80 13.97C14.84 13.97 16.44 12.49 16.44 10.30C16.44 8.12 14.84 6.64 12.80 6.64C10.75 6.64 9.16 8.12 9.16 10.30ZM10.92 10.30C10.92 9.07 11.68 8.26 12.80 8.26C13.92 8.26 14.67 9.07 14.67 10.30C14.67 11.54 13.92 12.35 12.80 12.35C11.68 12.35 10.92 11.54 10.92 10.30ZM24.44 13.78L24.44 6.83L22.68 6.83L22.68 10.42C22.68 11.65 22.08 12.35 20.94 12.35C19.94 12.35 19.38 11.77 19.38 10.81L19.38 6.83L17.61 6.83L17.61 10.98C17.61 12.78 18.77 13.89 20.31 13.89C21.59 13.89 22.23 13.30 22.51 12.66L22.71 12.66L22.71 13.78ZM26.12 3.98L26.12 13.78L27.86 13.78L27.86 12.80L28.06 12.80C28.42 13.38 29.04 13.97 30.27 13.97C32.00 13.97 33.46 12.43 33.46 10.30C33.46 8.18 32.00 6.64 30.27 6.64C29.04 6.64 28.42 7.22 28.06 7.81L27.89 7.81L27.89 3.98ZM29.79 8.20C30.86 8.20 31.70 8.96 31.70 10.30C31.70 11.65 30.86 12.40 29.79 12.40C28.70 12.40 27.89 11.62 27.89 10.30C27.89 8.99 28.70 8.20 29.79 8.20ZM36.48 3.98L34.72 3.98L34.72 13.78L36.48 13.78ZM37.74 10.25C37.74 12.40 39.24 13.97 41.31 13.97C43.18 13.97 43.99 12.99 44.46 12.26L42.95 11.40C42.71 11.89 42.27 12.43 41.29 12.43C40.28 12.43 39.62 11.72 39.58 10.82L44.72 10.82L44.72 10.14C44.72 8.05 43.30 6.64 41.29 6.64C39.24 6.64 37.74 8.15 37.74 10.25ZM39.59 9.59C39.70 8.76 40.28 8.18 41.27 8.18C42.18 8.18 42.80 8.74 42.90 9.59ZM49.34 10.30C49.34 12.49 50.93 13.97 52.98 13.97C55.02 13.97 56.62 12.49 56.62 10.30C56.62 8.12 55.02 6.64 52.98 6.64C50.93 6.64 49.34 8.12 49.34 10.30ZM51.10 10.30C51.10 9.07 51.86 8.26 52.98 8.26C54.10 8.26 54.85 9.07 54.85 10.30C54.85 11.54 54.10 12.35 52.98 12.35C51.86 12.35 51.10 11.54 51.10 10.30ZM59.61 6.83L57.88 6.83L57.88 13.78L59.64 13.78L59.64 9.88C59.64 8.90 60.28 8.43 61.18 8.43L62.22 8.43L62.22 6.80L61.52 6.80C60.63 6.80 60.05 7.07 59.78 7.84L59.61 7.84ZM67.06 3.98L67.06 13.78L68.91 13.78L68.91 5.71L69.08 5.71L71.32 13.78L74.59 13.78L74.59 3.98L72.74 3.98L72.74 12.04L72.58 12.04L70.34 3.98ZM75.88 10.30C75.88 12.49 77.48 13.97 79.52 13.97C81.56 13.97 83.16 12.49 83.16 10.30C83.16 8.12 81.56 6.64 79.52 6.64C77.48 6.64 75.88 8.12 75.88 10.30ZM77.64 10.30C77.64 9.07 78.40 8.26 79.52 8.26C80.64 8.26 81.40 9.07 81.40 10.30C81.40 11.54 80.64 12.35 79.52 12.35C78.40 12.35 77.64 11.54 77.64 10.30ZM83.72 6.83L83.72 8.37L85.48 8.37L85.48 12.43C85.48 13.22 86.07 13.78 86.86 13.78L88.76 13.78L88.76 12.24L87.64 12.24C87.39 12.24 87.25 12.10 87.25 11.82L87.25 8.37L89.15 8.37L89.15 6.83L87.25 6.83L87.25 4.68L85.48 4.68L85.48 6.83ZM90.47 3.98L90.47 13.78L92.23 13.78L92.23 10.19C92.23 8.96 92.83 8.26 93.97 8.26C94.98 8.26 95.54 8.83 95.54 9.80L95.54 13.78L97.30 13.78L97.30 9.63C97.30 7.83 96.14 6.72 94.60 6.72C93.32 6.72 92.68 7.31 92.40 7.95L92.23 7.95L92.23 3.98ZM98.53 4.82C98.53 5.53 99.08 6.02 99.78 6.02C100.48 6.02 101.02 5.53 101.02 4.82C101.02 4.10 100.48 3.61 99.78 3.61C99.08 3.61 98.53 4.10 98.53 4.82ZM100.66 6.83L98.90 6.83L98.90 13.78L100.66 13.78ZM102.34 6.83L102.34 13.78L104.10 13.78L104.10 10.19C104.10 8.96 104.71 8.26 105.84 8.26C106.85 8.26 107.41 8.83 107.41 9.80L107.41 13.78L109.17 13.78L109.17 9.63C109.17 7.83 108.01 6.72 106.47 6.72C105.20 6.72 104.55 7.31 104.27 7.95L104.08 7.95L104.08 6.83ZM115.95 6.83L115.95 7.81L115.75 7.81C115.39 7.22 114.77 6.64 113.54 6.64C111.80 6.64 110.35 8.12 110.35 10.19C110.35 12.26 111.80 13.75 113.54 13.75C114.77 13.75 115.39 13.16 115.75 12.57L115.92 12.57L115.92 14.62C115.92 14.90 115.78 15.04 115.53 15.04L111.05 15.04L111.05 16.58L116.31 16.58C117.10 16.58 117.68 16.02 117.68 15.23L117.68 6.83ZM114.02 12.18C112.95 12.18 112.11 11.48 112.11 10.19C112.11 8.90 112.95 8.20 114.02 8.20C115.11 8.20 115.92 8.93 115.92 10.19C115.92 11.45 115.11 12.18 114.02 12.18Z"></path></g><!----><!----></svg>